<svg xmlns="http://www.w3.org/2000/svg" data-name="Layer 1" width="866.524" height="637.056"><path d="M805 637.056v-72.34s28.192 51.286 0 72.34z" fill="#f1f1f1"/><path d="M806.741 637.044l-53.29-48.922s56.846 13.916 53.29 48.922z" fill="#f1f1f1"/><path d="M576.528 445.97a9.095 9.095 0 019.852-9.871l9.606-18.431 12.625 3.106-13.932 25.837a9.145 9.145 0 01-18.15-.64zM633.871 625.527l-10.653-.001-5.068-41.089 15.723.001-.002 41.089z" fill="#ffb7b7"/><path d="M636.587 635.853l-34.348-.002v-.434a13.37 13.37 0 0113.37-13.37l20.98.002z" fill="#2f2e41"/><path fill="#ffb7b7" d="M719.549 617.569l-10.278 2.802-15.701-38.308 15.169-4.136 10.81 39.642z"/><path d="M724.887 626.816l-33.14 9.037-.114-.42a13.37 13.37 0 019.381-16.415h.001l20.24-5.52zM614.423 448.033l-5.314 80.694 11.415 90.534 18.697-5.707.788-80.891 14.957-46.645 44.284 124.584 20.271-7.479-16.729-80.891-9.447-75.97-78.922 1.771z" fill="#2f2e41"/><path d="M666.084 306.334l-31.485 4.643-11.343 11.218-3.522 40.307 2.187 35.702-9.118 62.959s22.93-12.73 40.7 3.205 42.636 2.816 43.147-7.784z" fill="#cbcbcb"/><path d="M650.096 356.885v-.045l15.641-50.984.202-.013c1.113-.072 27.337-1.618 33.202 11.33l.029.063-1.782 52.983 2.454 82.979-48.5 10.505-.353.076zM632.763 353.361l2.869-43.22c-20.407 1.269-20.1 15.737-20.076 16.368l-.223 64.65-4.087 69.164 14.86-1.115z" fill="#2f2e41"/><path d="M586.747 432.005l18.117-42.047 12.646-23.222 6.602 41.89-22.922 34.383z" fill="#2f2e41"/><path d="M661.622 416.534a9.095 9.095 0 0112.325-6.526l14.616-14.777 11.147 6.692-20.935 20.578a9.145 9.145 0 01-17.153-5.967z" fill="#ffb7b7"/><path d="M673.913 404.614l29.801-32.693-19.726-28.149 2.03-13.762 11.627-14.362.227.293c1.239 1.604 30.362 39.44 31.197 53.763.839 14.376-41.02 50.742-42.803 52.282l-.248.215z" fill="#2f2e41"/><circle cx="647.916" cy="281.612" r="21.181" fill="#ffb7b7"/><path d="M667.838 264.678l1.027-2.066-5.167-2.567s-5.7-9.275-16.014-6.668-14.955 4.166-14.955 4.166l-5.154 2.593 2.587 2.574-4.64 1.56 3.1 1.54-3.608 2.073 1.942 10.628s3.225-8.06 9.425-4.98 17.542-1.593 17.542-1.593l9.853 19.069s2.033-6.685 5.657-4.902c0 0 9.258-14.745-1.595-21.427z" fill="#2f2e41"/><path d="M428.17 384.598l-322.103 88.831L0 88.831 322.102 0z" fill="#fff"/><path d="M428.17 384.598l-322.103 88.831L0 88.831 322.102 0zM110.181 466.18l310.738-85.698L317.987 7.25 7.25 92.947z" fill="#f1f1f1"/><path d="M252.006 172.293l-80.741 22.268a4.46 4.46 0 01-5.48-3.11l-22.267-80.742a4.46 4.46 0 013.11-5.479l80.742-22.267a4.46 4.46 0 015.479 3.11l22.267 80.741a4.46 4.46 0 01-3.11 5.48zm-104.904-65.345a2.676 2.676 0 00-1.866 3.288l22.267 80.74a2.676 2.676 0 003.288 1.867l80.741-22.267a2.676 2.676 0 001.866-3.288l-22.267-80.74a2.676 2.676 0 00-3.288-1.867z" fill="#e5e5e5"/><path d="M231.538 188.567l-80.74 22.268a4.014 4.014 0 01-4.932-2.8l-22.267-80.74a4.014 4.014 0 012.8-4.932l80.74-22.267a4.014 4.014 0 014.931 2.799l22.268 80.741a4.014 4.014 0 01-2.8 4.931z" fill="#5865f2"/><path fill="#f1f1f1" d="M99.756 261.73l225.317-62.14 2.4 8.707-225.316 62.14zM106.017 284.431l225.317-62.139 2.4 8.707-225.316 62.14zM112.278 307.132l225.316-62.139 2.402 8.707-225.317 62.14zM123.297 347.088l225.316-62.139 2.402 8.707-225.317 62.14zM129.558 369.79l225.316-62.139 2.402 8.707-225.317 62.14zM135.819 392.492l225.316-62.139 2.402 8.707L138.22 401.2z"/><path d="M531.276 472.144H197.15V73.19h334.127z" fill="#fff"/><path d="M531.276 472.144H197.15V73.19h334.127zm-328.232-5.894h322.338V79.083H203.044z" fill="#e5e5e5"/><path fill="#5865f2" d="M279.408 244.695h191.034v9.032H279.408zM279.408 268.178h191.034v9.032H279.408zM279.408 291.661h191.034v9.032H279.408z"/><circle cx="263.877" cy="250.534" r="5.895" fill="#5865f2"/><path fill="#e5e5e5" d="M279.408 143.505h191.034v9.032H279.408zM279.408 166.989h191.034v9.032H279.408zM279.408 190.472h191.034v9.032H279.408z"/><circle cx="263.877" cy="148.362" r="5.895" fill="#e5e5e5"/><path fill="#e5e5e5" d="M279.408 346.867h191.034v9.032H279.408zM279.408 370.35h191.034v9.032H279.408zM279.408 393.833h191.034v9.032H279.408z"/><circle cx="263.877" cy="351.723" r="5.895" fill="#e5e5e5"/><circle cx="515.677" cy="438.205" r="68.293" fill="#5865f2"/><path d="M534.598 433.848v-13.067a18.921 18.921 0 10-37.842 0v13.067a9.838 9.838 0 00-9.396 9.824v30.879h56.634v-30.88a9.838 9.838 0 00-9.396-9.823zm-18.921-25.326a12.273 12.273 0 0112.258 12.26v13.044h-24.517V420.78a12.273 12.273 0 0112.259-12.259z" fill="#fff"/><path d="M520.768 449.098a5.09 5.09 0 10-7.955 4.207v11.065h5.727v-11.065a5.084 5.084 0 002.228-4.207z" fill="#5865f2"/><path d="M865.524 636.65h-381a1 1 0 010-2h381a1 1 0 010 2z" fill="#cbcbcb"/></svg>