<svg xmlns="http://www.w3.org/2000/svg" data-name="Layer 1" width="697.484" height="461.234"><path d="M520.78 302.585a6.816 6.816 0 014.239-8.593 6.64 6.64 0 011.066-.257l3.651-14.983 9.521.03-5.45 21.085a6.793 6.793 0 01-4.553 7.017 6.68 6.68 0 01-8.474-4.3z" fill="#9f616a"/><path d="M536.854 292.889l-14.582-1.025 7.062-42.675-4.494-46.99 14.74-6.128 9.831 52.182-.027.096z" fill="#2f2e41"/><path d="M424.102 287.887a6.75 6.75 0 016.624-6.871 6.628 6.628 0 011.092.085l7.987-13.138 9.058 2.974-11.536 18.393a6.688 6.688 0 01-13.225-1.443zM469.071 452.168h-7.757l-3.69-30.338 11.449.001-.002 30.337z" fill="#9f616a"/><path d="M471.05 459.793l-25.012-.001v-.321a9.876 9.876 0 012.852-6.98 9.605 9.605 0 016.883-2.891h15.277z" fill="#2f2e41"/><path fill="#9f616a" d="M523.187 452.168h-7.757l-3.69-30.338 11.448.001-.001 30.337z"/><path d="M525.165 459.793l-25.012-.001v-.321a9.876 9.876 0 012.852-6.98 9.605 9.605 0 016.884-2.891h15.277z" fill="#2f2e41"/><ellipse cx="515.81" cy="148.593" rx="18.428" ry="18.686" fill="#9f616a"/><path d="M509.586 147.568a12.36 12.36 0 01-15.217-5.472 12.723 12.723 0 013.901-15.887c4.905-3.328 12.23-2.226 16.985 1.634a16.433 16.433 0 0119.182 4.036c4.59 5.384 5.092 13.93 1.747 20.207a22.236 22.236 0 001.27 20.567c-1.439-.06-4.607-.33-8.57-.676-1.148-.1-1.644-3.517-2.902-3.627-1.11-.097-2.97 3.113-4.133 3.014-8.608-.738-18.246-1.487-22.614-1.34a241.587 241.587 0 0110.351-22.456zM529.943 280.233s5.99 6.26 2.332 38.592l-2.527 68.65-4.47 60.788-14.382-.97-12.633-139.91-17.686 51.197-9.524 84.641-13.799-.97-2.356-84.17 6.049-65.049z" fill="#2f2e41"/><path d="M470.665 296.948c-7.358 0-10.322-.897-10.538-.966l-.342-.109.06-.357c.05-.294 4.993-29.52 11.776-44.865l4.77-62.226a8.16 8.16 0 016.836-7.496l.064.411-.064-.411 12.133-1.932 7.422-6.626 17.78.997 1.568 7.626c2.127.602 16.16 4.963 17.549 15.406l.017.13-.06.117-25.709 50.147c2.173 2.174 19.342 20.058 20.507 42.92l.028.55-.53-.123c-.049-.01-5.543-1.07-34.435 3.884-13.362 2.29-22.648 2.923-28.832 2.923z" fill="#2f2e41"/><path d="M442.165 287.584l-10.479-8.182 23.389-47.448 21.753-46.503a3.46 3.46 0 016.491.574l5.384 19.806-16.837 44.419z" fill="#2f2e41"/><path d="M667.107 459.454l.623-1.151c-8.349-4.515-18.738-10.134-24.165-19.354-5.35-9.09-5.47-21.433-.313-32.213 4.388-9.174 12.449-17.393 23.31-23.77 2.143-1.257 4.392-2.45 6.567-3.602 5.257-2.786 10.693-5.667 15.176-9.755 6.173-5.63 10.845-15.078 7.363-23.494a15.615 15.615 0 00-13.535-9.47l-.074 1.308a14.31 14.31 0 0112.403 8.672c3.235 7.82-1.204 16.695-7.04 22.017-4.36 3.976-9.721 6.817-14.906 9.565-2.188 1.16-4.45 2.359-6.617 3.63-11.087 6.51-19.327 14.924-23.828 24.334-5.342 11.168-5.202 23.982.366 33.442 5.611 9.534 16.179 15.25 24.67 19.841z" fill="#f1f1f1"/><ellipse cx="673.836" cy="337.981" rx="11.455" ry="5.564" fill="#f1f1f1"/><ellipse cx="664.671" cy="374.638" rx="11.455" ry="5.564" fill="#f1f1f1"/><ellipse cx="685.618" cy="380.529" rx="11.455" ry="5.564" fill="#f1f1f1"/><ellipse cx="652.889" cy="411.294" rx="11.455" ry="5.564" fill="#f1f1f1"/><ellipse cx="629.979" cy="411.294" rx="11.455" ry="5.564" fill="#f1f1f1"/><path d="M696 461.234H322.484a1 1 0 010-2h374a1 1 0 011 1c0 .553-.932 1-1.484 1z" fill="#cbcbcb"/><path d="M228.539 111.771h-166a5.006 5.006 0 01-5-5v-56a5.006 5.006 0 015-5h166a5.006 5.006 0 015 5v56a5.006 5.006 0 01-5 5z" fill="#3f3d56"/><path fill="#fff" d="M83.539 60.771h44v5h-44z"/><circle cx="185.539" cy="63.771" r="3" fill="#6c63ff"/><circle cx="195.539" cy="63.771" r="3" fill="#6c63ff"/><circle cx="205.539" cy="63.771" r="3" fill="#6c63ff"/><path d="M228.539 182.771h-166a5.006 5.006 0 01-5-5v-56a5.006 5.006 0 015-5h166a5.006 5.006 0 015 5v56a5.006 5.006 0 01-5 5z" fill="#3f3d56"/><path fill="#fff" d="M83.539 131.771h44v5h-44z"/><circle cx="185.539" cy="134.771" r="3" fill="#6c63ff"/><circle cx="195.539" cy="134.771" r="3" fill="#6c63ff"/><circle cx="205.539" cy="134.771" r="3" fill="#6c63ff"/><path d="M228.539 253.771h-166a5.006 5.006 0 01-5-5v-56a5.006 5.006 0 015-5h166a5.006 5.006 0 015 5v56a5.006 5.006 0 01-5 5z" fill="#3f3d56"/><path fill="#fff" d="M83.539 202.771h44v5h-44z"/><circle cx="185.539" cy="205.771" r="3" fill="#6c63ff"/><circle cx="195.539" cy="205.771" r="3" fill="#6c63ff"/><circle cx="205.539" cy="205.771" r="3" fill="#6c63ff"/><path fill="#ccc" d="M168 297.234H0V231h2v64.234h166v2zM105 0h168v66.234h-2V2H105V0z"/></svg>